<?xml version="1.0" encoding="utf-8"?>
<!-- Generator: Adobe Illustrator 18.1.1, SVG Export Plug-In . SVG Version: 6.00 Build 0)  -->
<svg version="1.1" id="Layer_1" xmlns="http://www.w3.org/2000/svg" xmlns:xlink="http://www.w3.org/1999/xlink" x="0px" y="0px"
	 width="292px" height="139px" viewBox="-594 2434 292 139" enable-background="new -594 2434 292 139" xml:space="preserve">
<path d="M-437.6,2458.6l-9.8,24.2c-2.6,6.8-4.2,13.6-4.2,20.8s1.5,14.4,4.2,20.8l9.8,24.2l16.3-0.4c6.8-0.8,11-7.9,8.3-14l-4.5-10.6
	c-2.6-6.4-4.2-13.2-4.2-20c0-6.8,1.5-13.6,4.2-20l4.5-10.6c2.6-6.4-1.5-13.2-8.3-14L-437.6,2458.6z"/>
<path d="M-477.3,2458.6l-9.8,24.2c-2.6,6.8-4.2,13.6-4.2,20.8s1.5,14.4,4.2,20.8l9.8,24.2l16.6-0.8c6.8-0.4,11.3-7.6,8.7-14
	l-4.5-9.8c-2.6-6.4-4.2-13.2-4.2-20c0-7.2,1.5-13.6,4.2-20l4.5-9.8c2.6-6.4-1.9-13.6-8.7-14L-477.3,2458.6z"/>
<path d="M-387.7,2541.1c4.5-2.6,8.3-9.1,8.3-14.4l0,0c0-3,1.9-6.8,4.2-8.3l0,0c4.5-3,7.6-8.7,7.6-14.4l0,0c0-6.1-3-11.3-7.6-14.8
	l-1.1-0.8c-2.6-1.9-3.4-4.5-3-7.6c0.8-5.3-1.5-10.6-6.4-13.2l-12.5-6.8l-11,26.5c-4.5,10.6-4.5,22.7,0,33.3l11,26.1L-387.7,2541.1z"
	/>
<g>
	<path d="M-557.1,2503.6c0-7.2,1.5-14.4,4.2-20.8l4.2-9.8c1.9-4.5-3.4-9.1-7.6-6.4c-5.7,3.4-10.2,8.3-12.9,14.8l-1.5,3l-4.2,1.9
		c-6.8,3.4-10.6,9.5-10.6,17l0,0c0,7.2,4.2,14,10.6,17l4.2,1.9l1.5,3.4c3,6.1,7.2,11.3,12.9,14.8c4.2,2.6,9.5-1.9,7.6-6.4l-4.2-9.8
		C-555.6,2518.1-557.1,2510.8-557.1,2503.6z"/>
	<path d="M-518.9,2503.6c0,7.2,1.1,14.4,4.2,20.8l9.5,23.1h4.9c6.8,0.4,11.7-6.4,9.1-12.9l-4.2-10.6c-2.6-6.8-4.2-13.6-4.2-20.8
		s1.5-14.4,4.2-20.8l4.2-10.6c2.6-6.4-2.3-13.2-9.1-12.9h-4.9l-9.5,23.1C-517.8,2489.7-518.9,2496.4-518.9,2503.6z"/>
	<path d="M-524.2,2524.8c-2.6-6.8-3.8-13.6-3.8-20.8c0-7.2,1.1-14.4,3.8-20.8l6.1-15.1c1.5-3.8-1.5-7.6-5.3-7.2l-11.3,0.8l-8.7,21.2
		c-2.6,6.8-4.2,13.6-4.2,20.8c0,7.2,1.5,14.4,4.2,20.8l8.7,21.6l11.3,0.8c3.8,0,6.4-3.8,5.3-7.2L-524.2,2524.8z"/>
</g>
<path fill="none" stroke="#000000" stroke-width="7.5644" stroke-miterlimit="10" d="M-360.8,2493.5l23.4-7.6
	c10.6-3.4,18.5-12.1,20-23.1l4.2-23.8"/>
<path fill="none" stroke="#000000" stroke-width="7.5644" stroke-miterlimit="10" d="M-360.8,2514.3l23.4,7.6
	c10.6,3.4,18.5,12.1,20,23.1l4.2,23.8"/>
</svg>
