<?xml version="1.0" encoding="utf-8"?>
<!-- Generator: Adobe Illustrator 18.1.1, SVG Export Plug-In . SVG Version: 6.00 Build 0)  -->
<svg version="1.1" id="Layer_1" xmlns="http://www.w3.org/2000/svg" xmlns:xlink="http://www.w3.org/1999/xlink" x="0px" y="0px"
	 width="35px" height="73px" viewBox="-547 2467 35 73" enable-background="new -547 2467 35 73" xml:space="preserve">
<path d="M-541.3,2500.8l6.4,2.6c1.8,0.7,3.6,1.1,5.5,1.1c1.9,0,3.8-0.4,5.5-1.1l6.4-2.6l-0.1-4.3c-0.2-1.8-2.1-2.9-3.7-2.2l-2.8,1.2
	c-1.7,0.7-3.5,1.1-5.3,1.1c-1.8,0-3.6-0.4-5.3-1.1l-2.8-1.2c-1.7-0.7-3.5,0.4-3.7,2.2L-541.3,2500.8z"/>
<path d="M-541.3,2511.3l6.4,2.6c1.8,0.7,3.6,1.1,5.5,1.1c1.9,0,3.8-0.4,5.5-1.1l6.4-2.6l-0.2-4.4c-0.1-1.8-2-3-3.7-2.3l-2.6,1.2
	c-1.7,0.7-3.5,1.1-5.3,1.1c-1.9,0-3.6-0.4-5.3-1.1l-2.6-1.2c-1.7-0.7-3.6,0.5-3.7,2.3L-541.3,2511.3z"/>
<path d="M-519.5,2487.6c-0.7-1.2-2.4-2.2-3.8-2.2l0,0c-0.8,0-1.8-0.5-2.2-1.1l0,0c-0.8-1.2-2.3-2-3.8-2l0,0c-1.6,0-3,0.8-3.9,2
	l-0.2,0.3c-0.5,0.7-1.2,0.9-2,0.8c-1.4-0.2-2.8,0.4-3.5,1.7l-1.8,3.3l7,2.9c2.8,1.2,6,1.2,8.8,0l6.9-2.9L-519.5,2487.6z"/>
<g>
	<path d="M-529.4,2532.4c-1.9,0-3.8-0.4-5.5-1.1l-2.6-1.1c-1.2-0.5-2.4,0.9-1.7,2c0.9,1.5,2.2,2.7,3.9,3.4l0.8,0.4l0.5,1.1
		c0.9,1.8,2.5,2.8,4.5,2.8l0,0c1.9,0,3.7-1.1,4.5-2.8l0.5-1.1l0.9-0.4c1.6-0.8,3-1.9,3.9-3.4c0.7-1.1-0.5-2.5-1.7-2l-2.6,1.1
		C-525.6,2532-527.5,2532.4-529.4,2532.4z"/>
	<path d="M-529.4,2522.3c1.9,0,3.8-0.3,5.5-1.1l6.1-2.5l0-1.3c0.1-1.8-1.7-3.1-3.4-2.4l-2.8,1.1c-1.8,0.7-3.6,1.1-5.5,1.1
		c-1.9,0-3.8-0.4-5.5-1.1l-2.8-1.1c-1.7-0.7-3.5,0.6-3.4,2.4l0,1.3l6.1,2.5C-533.1,2522-531.3,2522.3-529.4,2522.3z"/>
	<path d="M-523.8,2523.7c-1.8,0.7-3.6,1-5.5,1c-1.9,0-3.8-0.3-5.5-1l-4-1.6c-1-0.4-2,0.4-1.9,1.4l0.2,3l5.6,2.3
		c1.8,0.7,3.6,1.1,5.5,1.1c1.9,0,3.8-0.4,5.5-1.1l5.7-2.3l0.2-3c0-1-1-1.7-1.9-1.4L-523.8,2523.7z"/>
</g>
<path fill="none" stroke="#000000" stroke-width="2" stroke-miterlimit="10" d="M-532.1,2480.5l-2-6.2c-0.9-2.8-3.2-4.9-6.1-5.3
	l-6.3-1.1"/>
<path fill="none" stroke="#000000" stroke-width="2" stroke-miterlimit="10" d="M-526.6,2480.5l2-6.2c0.9-2.8,3.2-4.9,6.1-5.3
	l6.3-1.1"/>
</svg>
